<svg id="Layer_1" data-name="Layer 1" xmlns="http://www.w3.org/2000/svg" viewBox="0 0 308.78 200"><defs><style>.cls-1{fill:#fe7692;}.cls-2{fill:#42c5be;}</style></defs><title>iconography</title><path class="cls-1" d="M99.72,17.15c22.45.28,73.74.15,96.19.15,22.77,0,31.13.07,53.9-.07,3.59,0,5,.87,4.83,4.73-.3,6.31-.09,12.64-.09,19,0,10.91,0,10.91-10.89,10.91-56.45,0-156.16,0-212.61-.06-3.58,0-5.74.55-6.66,4.62-1.87,8.25-4.31,16.37-6.5,24.55C12.72,100.2,7.58,175.09,2.37,194.32a20.58,20.58,0,0,1-1.62,3.43,19.91,19.91,0,0,1-.64-3.55C.08,149.6.13,49.35,0,4.75,0,.78,1.51,0,4.93.09,11.2.28,75.27.87,81.42,0Z"/><path class="cls-2" d="M130.67,140.29c32.5,0,108.27-.09,140.78.1,4.27,0,5.93-1.22,6.91-5.49,7.64-33.34,22-81.21,30.05-114.47,1-4.08.12-4.75-3.72-4.73-28.05.13-41.67.07-69.73.07-36.3,0-130.29.06-166.59-.09-3.82,0-5.42,1.12-6.41,4.88-8.81,33.56-24.3,81.66-33.44,115.13-1.13,4.15-.1,4.68,3.64,4.66C65,140.24,97.83,140.29,130.67,140.29Z"/><path class="cls-1" d="M114.64,199.91c32.51,0,108.29-.07,140.78.09,4.27,0,6-1.08,7.23-4.84,9.61-29.43,26.84-71.67,36.82-101,1.23-3.6.41-4.19-3.43-4.17-28.06.11-41.68.06-69.73.06C190,90,96,90.08,59.72,90c-3.83,0-5.49,1-6.7,4.3-10.8,29.62-29.13,72.07-40.25,101.61-1.38,3.65-.37,4.12,3.36,4.11C49,199.87,81.81,199.91,114.64,199.91Z"/></svg>